<svg xmlns="http://www.w3.org/2000/svg" width="600" height="300.937" viewBox="0 0 600 300.937"><path d="M219.906 46.158a6.408 6.408 0 0 0-6.417-6.417h-41.88a6.408 6.408 0 0 0-6.416 6.417 6.408 6.408 0 0 0 6.416 6.416h35.464v143.03c0 .149 0 .299.021.448.021.236.535 9.005-2.331 21.56l-37.56-47.847c-2.46-3.144-7.144-3.422-9.967-.599L144.403 182l-34.415-44.34L75.572 182 62.74 169.166c-2.823-2.823-7.507-2.545-9.967.6l-37.688 48.018c-2.716-12.17-2.267-20.812-2.203-21.732.021-.15.021-.3.021-.449V52.574h35.464a6.408 6.408 0 0 0 6.416-6.416 6.408 6.408 0 0 0-6.416-6.417H6.486a6.408 6.408 0 0 0-6.417 6.417V195.41c-.128 2.16-.642 16.448 5.24 34.8.428 1.304.856 2.61 1.348 3.957 3.465 9.56 9.09 20.961 18.245 32.319 9.604 11.935 23.1 23.806 42.05 33.388a6.43 6.43 0 0 0 7.915-1.733l35.12-44.19 35.121 44.19a6.468 6.468 0 0 0 5.027 2.417c.984 0 1.968-.214 2.887-.684 18.759-9.497 32.277-21.24 42.009-33.41 9.903-12.363 15.892-25.153 19.485-36.425 5.818-18.096 5.476-32.32 5.39-34.587V46.158zm-68.06 239.814l-36.832-46.329c-1.22-1.518-3.08-2.417-5.026-2.417s-3.808.899-5.027 2.417L68.13 285.972c-15.828-8.77-27.143-19.229-35.206-29.86l77.065-99.822 76.979 99.716c-8.085 10.694-19.357 21.218-35.121 29.966zM58.868 7.786c.021.064.021.128.042.192l8.214 39.484a6.432 6.432 0 0 0 6.288 5.112h73.15a6.432 6.432 0 0 0 6.29-5.112l8.191-39.42c.022-.107.064-.235.064-.342a6 6 0 0 0 .065-2.139 5.025 5.025 0 0 0-.514-1.754 3.052 3.052 0 0 0-.256-.534 7.168 7.168 0 0 0-.899-1.22 7.556 7.556 0 0 0-1.176-.984h-.021c-.3-.213-.62-.363-.942-.491-.15-.107-.3-.15-.47-.214a6.267 6.267 0 0 0-4.749.278c-.235.107-.449.235-.663.363a3.165 3.165 0 0 0-.577.407c-.15.085-.3.214-.428.342-.085.064-.15.15-.235.235-.193.193-.385.385-.535.62a3.62 3.62 0 0 0-.492.77c-.043.065-.085.129-.107.193-.085.128-.128.235-.192.364-3.016 7.058-10.203 18.266-16.577 18.394-4.791.086-10.823-6.652-16.49-18.523-.022-.043-.044-.107-.065-.15-.043-.106-.107-.192-.171-.299-.064-.15-.15-.32-.257-.449a1.182 1.182 0 0 0-.15-.193c-.106-.192-.256-.363-.385-.534-.192-.214-.406-.407-.598-.6-.171-.128-.343-.277-.535-.384a1.173 1.173 0 0 0-.193-.15 1.876 1.876 0 0 0-.449-.257 2.88 2.88 0 0 0-.513-.256 3.483 3.483 0 0 0-.792-.278 4.002 4.002 0 0 0-.727-.171 6.612 6.612 0 0 0-2.053 0 4.002 4.002 0 0 0-.727.17c-.278.065-.535.15-.792.279-.064.021-.15.043-.214.085-.107.043-.192.107-.3.171-.149.065-.32.15-.448.257a1.173 1.173 0 0 0-.193.15c-.192.107-.363.256-.534.385-.214.192-.407.406-.6.599-.128.17-.277.342-.384.534a1.182 1.182 0 0 0-.15.193c-.107.128-.193.3-.257.45-.085.149-.17.299-.235.448C98.502 15.593 92.534 22.33 87.743 22.33h-.107c-6.374-.128-13.56-11.336-16.577-18.394-.042-.086-.064-.15-.107-.214a2.446 2.446 0 0 0-.213-.407c-.065-.128-.129-.256-.236-.385a2.271 2.271 0 0 0-.342-.449.883.883 0 0 0-.214-.278 6.69 6.69 0 0 0-1.005-.92C67.872.45 66.568 0 65.135 0a6.408 6.408 0 0 0-6.417 6.417c0 .428.043.877.15 1.305v.064zM87.4 35.164h.363c8.15 0 15.486-5.091 22.224-15.486 6.737 10.395 14.074 15.486 22.223 15.486h.363c3.808-.064 7.294-1.326 10.395-3.251l-1.625 7.828H78.63l-1.625-7.828c3.101 1.925 6.587 3.187 10.395 3.25zm175.76 224.2c6.142 0 10.572-3.699 10.572-10.922v-13.988h-4.57v13.988c0 4.188-2.163 6.734-5.966 6.734-3.803 0-6.315-2.337-6.315-6.734v-13.988h-4.57v13.988c0 7.363 4.989 10.922 10.85 10.922zm20.033-16.992l12.839 16.504v-.036h2.86v-24.457h-4.604v15.177l-11.968-15.142h-3.733v24.422h4.606v-16.468zm19.96 16.468h4.572v-24.422h-4.571v24.422zm22.156.105l10.153-24.527h-5.164l-7.396 19.014-7.361-19.014h-5.164l10.153 24.527h4.78zm12.915-.105h18.282v-4.535h-13.712v-5.512h13.223v-4.292h-13.223v-5.617h13.712v-4.466h-18.282v24.422zm38.034 0h5.476v-.313l-7.396-8.339c4.641-.942 6.174-4.328 6.174-7.676 0-4.221-3.035-8.058-8.791-8.094-3.873 0-7.745-.035-11.618-.035v24.457h4.606v-8.165h4.43l7.119 8.165zm-11.55-20.132h7.013c2.897 0 4.188 1.956 4.188 3.909 0 1.953-1.258 3.908-4.188 3.908h-7.012v-7.817zm29.31 16.644c-2.966 0-5.792-1.187-6.872-3.873l-3.839 1.989c1.815 4.466 5.652 6 10.643 6 5.44 0 10.257-2.337 10.257-7.78 0-5.828-4.745-7.152-9.84-7.78-2.93-.35-5.441-.943-5.441-3.071 0-1.813 1.64-3.244 5.057-3.244 2.653 0 4.955 1.326 5.792 2.722l3.664-1.884c-1.849-3.769-5.792-4.85-9.594-4.85-4.501.035-9.456 2.092-9.456 7.116 0 5.479 4.606 6.803 9.594 7.396 3.246.35 5.652 1.291 5.652 3.595 0 2.65-2.72 3.664-5.617 3.664zm18.357-20.934h-4.57v24.422h4.57v-24.422zm4.016 4.186h7.746v20.236h4.605v-20.236h7.745v-4.186h-20.096v4.186zm41.101 15.701h-13.71v-5.512h13.224v-4.292h-13.225v-5.617h13.711v-4.466h-18.28v24.422h18.28v-4.535zm-3.384-27.143v-.176h-5.023l-2.582 4.746v.209h3.768l3.837-4.78zm23.487 16.745c-2.931-.348-5.442-.942-5.442-3.07 0-1.813 1.64-3.244 5.057-3.244 2.653 0 4.955 1.326 5.792 2.722l3.664-1.884c-1.848-3.769-5.792-4.85-9.594-4.85-4.5.035-9.456 2.092-9.456 7.116 0 5.479 4.606 6.803 9.594 7.396 3.246.35 5.652 1.291 5.652 3.595 0 2.65-2.72 3.664-5.616 3.664-2.966 0-5.792-1.187-6.872-3.873l-3.84 1.989c1.816 4.466 5.653 6 10.643 6 5.441 0 10.256-2.337 10.256-7.78 0-5.828-4.744-7.152-9.838-7.78zm21.844-9.489l-10.956 24.422h4.988l2.095-4.606h12.77l2.057 4.606h5.025l-10.955-24.422h-5.024zm-2.024 15.526l4.535-10.398 4.537 10.398h-9.072zm26.939 3.488l-7.36-19.014h-5.164l10.151 24.527h4.781l10.152-24.527h-5.164l-7.396 19.014zm26.87-19.503c-8.443 0-12.56 6.455-12.56 12.873 0 6.421 3.977 12.596 12.56 12.596s12.455-6.315 12.524-12.629c.071-6.385-4.117-12.84-12.524-12.84zm0 21.247c-5.757 0-7.92-4.29-8.025-8.303-.105-4.117 2.268-8.758 8.025-8.758s8.058 4.606 7.99 8.723c-.072 4.012-2.233 8.338-7.99 8.338zm15.95 3.664h4.57v-24.422h-4.57v24.422zm27.11-19.956v-4.466h-18.28v24.422h18.28v-4.535h-13.71v-5.512h13.223v-4.292h-13.224v-5.617h13.711zm-328.718 47.34l-7.784-10.699h-5.401v24.88h4.69v-18.091l7.927 10.84h.923l8.105-10.805v18.056h4.69v-24.88h-5.366l-7.784 10.699zm29.237-11.231c-8.602 0-12.795 6.575-12.795 13.115 0 6.538 4.051 12.83 12.795 12.83 8.742 0 12.688-6.434 12.759-12.865.07-6.505-4.194-13.08-12.76-13.08zm0 21.643c-5.865 0-8.068-4.371-8.175-8.457-.106-4.194 2.31-8.921 8.175-8.921 5.864 0 8.21 4.691 8.139 8.886-.072 4.085-2.275 8.492-8.14 8.492zm32.543-5.72l-12.191-15.426h-3.803v24.88h4.691v-16.776l13.08 16.81v-.035h2.914v-24.915h-4.691v15.461zm7.522-11.161h7.89v20.614h4.692v-20.614h7.89v-4.265H334.87v4.265zm47.47 7.747c2.31-1.03 3.236-2.878 3.236-4.798 0-5.01-3.662-7.214-8.567-7.214h-11.8v24.88h11.8c5.153 0 9.312-1.778 9.312-7.322 0-1.565-1.065-4.656-3.981-5.546zm-12.51-7.747h7.18c2.984 0 3.91 1.92 3.91 3.056 0 1.422-.961 2.665-3.91 2.665h-7.18v-5.721zm7.18 16.242h-7.18V289.6h7.18c1.919 0 4.655 1.174 4.655 3.413 0 2.346-2.736 2.985-4.656 2.985zm17.299-20.507h-4.692v24.88h17.485v-4.337h-12.793V275.49zm24.691 0l-11.16 24.88h5.082l2.132-4.692h13.01l2.094 4.691h5.12l-11.16-24.88h-5.118zm-2.062 15.816l4.62-10.592 4.621 10.592h-9.24zm36.809-.39l-12.19-15.426h-3.804v24.88h4.692v-16.776l13.08 16.81v-.035h2.913v-24.915h-4.691v15.461zm21.454 5.614c-6.148 0-8.529-4.3-8.566-8.422-.036-4.159 2.56-8.637 8.566-8.637 2.168 0 4.372.746 6.007 2.346l3.127-3.02c-2.559-2.526-5.757-3.804-9.134-3.804-8.992 0-13.222 6.61-13.187 13.115.036 6.467 3.946 12.83 13.187 12.83 3.59 0 6.895-1.173 9.454-3.696l-3.198-3.235c-1.636 1.635-4.088 2.523-6.256 2.523z" fill="#939598"/><path d="M78.845 117.17c0 6.095 4.962 11.058 11.058 11.058H103.7V101.47H78.845v15.7zm37.345 11.058h13.796c6.096 0 11.059-4.963 11.059-11.059v-15.7H116.19v26.759zm-37.345-39.25H103.7v-22.95H78.845v22.95zm37.345 0h24.855v-22.95H116.19v22.95zm133.854 125.739h30.043V54.177h-30.043v160.54zM364.02 54.177l-72.012 160.54h32.796l13.76-30.273h83.94l13.531 30.273h33.024l-72.013-160.54H364.02zm-13.3 102.058l29.814-68.344 29.813 68.344H350.72zM600 83.533V54.178H479.824v160.539H600v-29.815h-90.13v-36.236h86.92v-28.208h-86.92V83.533H600z" fill="#ef3340"/></svg>